<svg width="28" height="28" viewBox="0 0 28 28" fill="none" xmlns="http://www.w3.org/2000/svg">
<g clip-path="url(#clip0_64_3228)">
<path d="M15.8562 14.0001L21.0515 8.80477C21.2981 8.55863 21.4367 8.22463 21.4371 7.87624C21.4374 7.52785 21.2993 7.1936 21.0531 6.94703C20.807 6.70046 20.473 6.56177 20.1246 6.56146C19.7762 6.56116 19.442 6.69926 19.1954 6.94539L14.0001 12.1407L8.80477 6.94539C8.5582 6.69882 8.22378 6.5603 7.87508 6.5603C7.52638 6.5603 7.19196 6.69882 6.94539 6.94539C6.69882 7.19196 6.5603 7.52638 6.5603 7.87508C6.5603 8.22378 6.69882 8.5582 6.94539 8.80477L12.1407 14.0001L6.94539 19.1954C6.69882 19.442 6.5603 19.7764 6.5603 20.1251C6.5603 20.4738 6.69882 20.8082 6.94539 21.0548C7.19196 21.3013 7.52638 21.4399 7.87508 21.4399C8.22378 21.4399 8.5582 21.3013 8.80477 21.0548L14.0001 15.8595L19.1954 21.0548C19.442 21.3013 19.7764 21.4399 20.1251 21.4399C20.4738 21.4399 20.8082 21.3013 21.0548 21.0548C21.3013 20.8082 21.4399 20.4738 21.4399 20.1251C21.4399 19.7764 21.3013 19.442 21.0548 19.1954L15.8562 14.0001Z" fill="black"/>
</g>
<defs>
<clipPath id="clip0_64_3228">
<rect width="28" height="28" fill="white"/>
</clipPath>
</defs>
</svg>
