<svg width="24" height="20" viewBox="0 0 24 20" fill="none" xmlns="http://www.w3.org/2000/svg">
<path d="M6.8 0.5C3.04446 0.5 0 3.51277 0 7.22917V12.7708C0 16.4872 3.04446 19.5 6.8 19.5C8.8868 19.5 10.7533 18.5696 11.9999 17.1071C13.2473 18.5705 15.1139 19.5 17.2 19.5C20.9555 19.5 24 16.4872 24 12.7708V7.22917C24 3.51277 20.9555 0.5 17.2 0.5C15.1139 0.5 13.2473 1.42954 11.9999 2.89289C10.7532 1.43034 8.8868 0.5 6.8 0.5ZM11.0762 4.30024C10.643 5.18572 10.4 6.17934 10.4 7.22917V12.7708C10.4 13.8207 10.643 14.8143 11.0762 15.6998C10.1365 17.0406 8.5712 17.9167 6.8 17.9167C3.92812 17.9167 1.6 15.6128 1.6 12.7708V11.9792C1.6 13.5095 2.8536 14.75 4.4 14.75C5.9464 14.75 7.2 13.5095 7.2 11.9792V8.02083C7.2 6.49054 5.9464 5.25 4.4 5.25C2.8536 5.25 1.6 6.49054 1.6 8.02083V7.22917C1.6 4.38716 3.92812 2.08333 6.8 2.08333C8.5712 2.08333 10.1366 2.95947 11.0762 4.30024ZM12 7.22917C12 4.38716 14.3281 2.08333 17.2 2.08333C20.0719 2.08333 22.4 4.38716 22.4 7.22917V12.7708C22.4 15.6128 20.0719 17.9167 17.2 17.9167C14.3281 17.9167 12 15.6128 12 12.7708V11.9792C12 13.5095 13.2536 14.75 14.8 14.75C16.3464 14.75 17.6 13.5095 17.6 11.9792V8.02083C17.6 6.49054 16.3464 5.25 14.8 5.25C13.2536 5.25 12 6.49054 12 8.02083V7.22917ZM6.14082 8.30663C5.84366 8.55141 5.34812 8.44707 5.034 8.07364C4.71988 7.70021 4.70614 7.19908 5.0033 6.9543C5.30046 6.70952 5.79599 6.81378 6.1101 7.18721C6.42422 7.56064 6.43797 8.06184 6.14082 8.30663ZM16.5574 7.18721C16.8715 7.56064 16.8852 8.06184 16.5881 8.30663C16.2909 8.55141 15.7954 8.44707 15.4813 8.07364C15.1671 7.70021 15.1534 7.19908 15.4506 6.9543C15.7477 6.70952 16.2433 6.81378 16.5574 7.18721Z" fill="#212121"/>
</svg>
