<svg width="28" height="28" viewBox="0 0 28 28" fill="none" xmlns="http://www.w3.org/2000/svg">
<g clip-path="url(#clip0_65_2534)">
<g clip-path="url(#clip1_65_2534)">
<path d="M8.1543 5H23.8457C24.6822 5 25.4847 5.33237 26.0762 5.92383C26.6676 6.51529 27 7.31784 27 8.1543V23.8457C27 24.6822 26.6676 25.4847 26.0762 26.0762C25.4847 26.6676 24.6822 27 23.8457 27H8.1543C7.31784 27 6.51529 26.6676 5.92383 26.0762C5.33237 25.4847 5 24.6822 5 23.8457V8.1543L5.00391 7.99707C5.04267 7.2177 5.36943 6.47823 5.92383 5.92383C6.47823 5.36943 7.2177 5.04267 7.99707 5.00391L8.1543 5Z" stroke="black" stroke-width="2"/>
<path d="M4.1543 1H19.8457C20.6822 1 21.4847 1.33237 22.0762 1.92383C22.6676 2.51529 23 3.31784 23 4.1543V19.8457C23 20.6822 22.6676 21.4847 22.0762 22.0762C21.4847 22.6676 20.6822 23 19.8457 23H4.1543C3.31784 23 2.51529 22.6676 1.92383 22.0762C1.33237 21.4847 1 20.6822 1 19.8457V4.1543L1.00391 3.99707C1.04267 3.2177 1.36943 2.47823 1.92383 1.92383C2.47823 1.36943 3.2177 1.04267 3.99707 1.00391L4.1543 1Z" fill="white" stroke="black" stroke-width="2"/>
<path d="M17.8846 21H6.11538C5.28913 21 4.49672 20.6718 3.91248 20.0875C3.32823 19.5033 3 18.7109 3 17.8846V6.11538C3 5.28913 3.32823 4.49672 3.91248 3.91247C4.49672 3.32823 5.28913 3 6.11538 3H17.8846C18.7109 3 19.5033 3.32823 20.0875 3.91247C20.6718 4.49672 21 5.28913 21 6.11538V17.8846C21 18.7109 20.6718 19.5033 20.0875 20.0875C19.5033 20.6718 18.7109 21 17.8846 21Z" fill="black"/>
</g>
</g>
<defs>
<clipPath id="clip0_65_2534">
<rect width="28" height="28" fill="white"/>
</clipPath>
<clipPath id="clip1_65_2534">
<rect width="28" height="28" fill="white"/>
</clipPath>
</defs>
</svg>
