<svg width="28" height="28" viewBox="0 0 28 28" fill="none" xmlns="http://www.w3.org/2000/svg">
<path fill-rule="evenodd" clip-rule="evenodd" d="M14.2718 5.19692C14.7844 5.70949 14.7844 6.54051 14.2718 7.05308L7.32491 14L14.2718 20.9469C14.7844 21.4595 14.7844 22.2905 14.2718 22.8031C13.7593 23.3156 12.9282 23.3156 12.4157 22.8031L4.54067 14.9281C4.02811 14.4155 4.02811 13.5845 4.54067 13.0719L12.4157 5.19692C12.9282 4.68436 13.7593 4.68436 14.2718 5.19692Z" fill="black"/>
<path fill-rule="evenodd" clip-rule="evenodd" d="M5.25 14C5.25 13.2751 5.83763 12.6875 6.5625 12.6875H22.5312C23.2561 12.6875 23.8438 13.2751 23.8438 14C23.8438 14.7249 23.2561 15.3125 22.5312 15.3125H6.5625C5.83763 15.3125 5.25 14.7249 5.25 14Z" fill="black"/>
</svg>
