<svg width="22" height="22" viewBox="0 0 22 22" fill="none" xmlns="http://www.w3.org/2000/svg">
<path d="M21.276 8.68063C20.7913 6.40016 19.506 4.32453 17.6563 2.83625C15.7648 1.3228 13.4141 0.498804 10.9916 0.500001C8.13599 0.500001 5.4688 1.60016 3.47474 3.59797C1.54771 5.5311 0.491613 8.08344 0.50005 10.783C0.500116 12.7622 1.08117 14.6978 2.17114 16.3498L2.37505 16.6334L1.25005 21.5L6.6313 20.1613C6.6313 20.1613 6.73911 20.1973 6.8188 20.2278C6.89849 20.2583 7.58427 20.5213 8.31177 20.7247C8.91646 20.8934 10.1746 21.1466 11.1604 21.1466C13.9565 21.1466 16.5674 20.0638 18.5118 18.0969C20.4388 16.1455 21.5 13.5509 21.5 10.7886C21.5002 10.08 21.4251 9.37337 21.276 8.68063ZM6.50005 12.5C6.20338 12.5 5.91337 12.412 5.66669 12.2472C5.42002 12.0824 5.22776 11.8481 5.11423 11.574C5.0007 11.2999 4.97099 10.9983 5.02887 10.7074C5.08675 10.4164 5.22961 10.1491 5.43939 9.93934C5.64917 9.72956 5.91644 9.5867 6.20741 9.52882C6.49839 9.47095 6.79999 9.50065 7.07407 9.61418C7.34816 9.72771 7.58243 9.91997 7.74725 10.1666C7.91208 10.4133 8.00005 10.7033 8.00005 11C8.00005 11.3978 7.84201 11.7794 7.56071 12.0607C7.27941 12.342 6.89787 12.5 6.50005 12.5ZM11 12.5C10.7034 12.5 10.4134 12.412 10.1667 12.2472C9.92002 12.0824 9.72776 11.8481 9.61423 11.574C9.5007 11.2999 9.47099 10.9983 9.52887 10.7074C9.58675 10.4164 9.72961 10.1491 9.93939 9.93934C10.1492 9.72956 10.4164 9.5867 10.7074 9.52882C10.9984 9.47095 11.3 9.50065 11.5741 9.61418C11.8482 9.72771 12.0824 9.91997 12.2473 10.1666C12.4121 10.4133 12.5 10.7033 12.5 11C12.5 11.3978 12.342 11.7794 12.0607 12.0607C11.7794 12.342 11.3979 12.5 11 12.5ZM15.5 12.5C15.2034 12.5 14.9134 12.412 14.6667 12.2472C14.42 12.0824 14.2278 11.8481 14.1142 11.574C14.0007 11.2999 13.971 10.9983 14.0289 10.7074C14.0868 10.4164 14.2296 10.1491 14.4394 9.93934C14.6492 9.72956 14.9164 9.5867 15.2074 9.52882C15.4984 9.47095 15.8 9.50065 16.0741 9.61418C16.3482 9.72771 16.5824 9.91997 16.7473 10.1666C16.9121 10.4133 17 10.7033 17 11C17 11.3978 16.842 11.7794 16.5607 12.0607C16.2794 12.342 15.8979 12.5 15.5 12.5Z" fill="#2D9CDB"/>
</svg>
