<svg width="20" height="18" viewBox="0 0 20 18" fill="none" xmlns="http://www.w3.org/2000/svg">
<path fill-rule="evenodd" clip-rule="evenodd" d="M7.76082 11.6172C7.56882 11.6172 7.37682 11.5442 7.23082 11.3972C6.49282 10.6602 6.08582 9.68019 6.08582 8.63819C6.08582 6.47819 7.84182 4.72119 9.99982 4.72119C11.0378 4.72119 12.0458 5.14019 12.7648 5.87119C13.0548 6.16719 13.0518 6.64119 12.7558 6.93119C12.4608 7.22319 11.9868 7.21819 11.6958 6.92419C11.2568 6.47719 10.6388 6.22119 9.99982 6.22119C8.66882 6.22119 7.58582 7.30519 7.58582 8.63819C7.58582 9.27919 7.83682 9.88319 8.29082 10.3372C8.58382 10.6302 8.58382 11.1042 8.29182 11.3972C8.14482 11.5442 7.95282 11.6172 7.76082 11.6172Z" fill="#7a7a7a"/>
<path fill-rule="evenodd" clip-rule="evenodd" d="M10.5674 12.4912C10.2124 12.4912 9.89645 12.2372 9.83045 11.8752C9.75645 11.4682 10.0264 11.0772 10.4344 11.0032C11.4144 10.8252 12.1904 10.0472 12.3664 9.06621C12.4404 8.65921 12.8304 8.39121 13.2374 8.46121C13.6454 8.53421 13.9164 8.92421 13.8434 9.33221C13.5564 10.9252 12.2944 12.1892 10.7024 12.4792C10.6574 12.4872 10.6114 12.4912 10.5674 12.4912Z" fill="#7a7a7a"/>
<mask id="mask0_250_1023" style="mask-type:luminance" maskUnits="userSpaceOnUse" x="0" y="0" width="17" height="15">
<path fill-rule="evenodd" clip-rule="evenodd" d="M0 0.624481H16.0862V14.7226H0V0.624481Z" fill="white"/>
</mask>
<g mask="url(#mask0_250_1023)">
<path fill-rule="evenodd" clip-rule="evenodd" d="M4.65438 14.7226C4.49238 14.7226 4.32938 14.6696 4.19138 14.5626C2.50038 13.2346 1.07138 11.2876 0.0613779 8.93361C-0.0206221 8.74361 -0.0206221 8.52961 0.0613779 8.34061C1.08238 5.97661 2.52038 4.01961 4.22038 2.68261C7.68638 -0.0603917 12.3004 -0.0693917 15.8014 2.70261C16.1264 2.95961 16.1814 3.43161 15.9244 3.75661C15.6664 4.07961 15.1964 4.13661 14.8704 3.87861C11.9044 1.53061 8.08338 1.53861 5.14938 3.86061C3.71338 4.99061 2.48038 6.63661 1.57038 8.63861C2.47138 10.6286 3.69338 12.2646 5.11838 13.3826C5.44438 13.6386 5.50038 14.1106 5.24438 14.4356C5.09638 14.6236 4.87638 14.7226 4.65438 14.7226Z" fill="#7a7a7a"/>
</g>
<mask id="mask1_250_1023" style="mask-type:luminance" maskUnits="userSpaceOnUse" x="6" y="4" width="14" height="13">
<path fill-rule="evenodd" clip-rule="evenodd" d="M6.71753 4.74118H20.0001V16.6894H6.71753V4.74118Z" fill="white"/>
</mask>
<g mask="url(#mask1_250_1023)">
<path fill-rule="evenodd" clip-rule="evenodd" d="M10.0002 16.6894C9.06316 16.6894 8.13116 16.5374 7.23116 16.2384C6.83816 16.1074 6.62516 15.6824 6.75616 15.2894C6.88716 14.8954 7.31016 14.6864 7.70516 14.8144C8.45216 15.0634 9.22416 15.1894 10.0002 15.1894C13.4282 15.1894 16.5612 12.7474 18.4302 8.63639C17.9742 7.63739 17.4432 6.73239 16.8492 5.94239C16.6002 5.61139 16.6662 5.14039 16.9972 4.89139C17.3272 4.64239 17.7982 4.71039 18.0472 5.04039C18.7712 6.00139 19.4072 7.11239 19.9382 8.33839C20.0212 8.52839 20.0212 8.74439 19.9382 8.93339C17.8422 13.7904 14.1272 16.6894 10.0002 16.6894Z" fill="#7a7a7a"/>
</g>
<mask id="mask2_250_1023" style="mask-type:luminance" maskUnits="userSpaceOnUse" x="1" y="0" width="18" height="18">
<path fill-rule="evenodd" clip-rule="evenodd" d="M1.36353 0.000396729H18.637V17.2734H1.36353V0.000396729Z" fill="white"/>
</mask>
<g mask="url(#mask2_250_1023)">
<path fill-rule="evenodd" clip-rule="evenodd" d="M2.11328 17.2734C1.92128 17.2734 1.72928 17.2004 1.58328 17.0534C1.29028 16.7604 1.29028 16.2864 1.58328 15.9934L17.3573 0.219384C17.6503 -0.0736162 18.1243 -0.0736162 18.4173 0.219384C18.7103 0.512384 18.7103 0.987384 18.4173 1.28038L2.64328 17.0534C2.49728 17.2004 2.30528 17.2734 2.11328 17.2734Z" fill="#7a7a7a"/>
</g>
</svg>
