<svg width="28" height="28" viewBox="0 0 28 28" fill="none" xmlns="http://www.w3.org/2000/svg">
<g clip-path="url(#clip0_71_7149)">
<path d="M16.3479 26.5781H11.6722C11.6667 26.5781 11.6612 26.5781 11.6558 26.5781C10.9558 26.5672 10.3706 26.0805 10.2284 25.3969C10.2229 25.3805 10.2229 25.3586 10.2175 25.3422L9.85106 22.7281H9.84559C9.39716 22.5094 8.95966 22.2578 8.5495 21.968L6.09403 22.9578C6.08856 22.9578 6.08309 22.9633 6.07763 22.9633C5.41044 23.2148 4.66122 22.9578 4.29481 22.3398C4.29481 22.3344 4.28934 22.3344 4.28934 22.3289L1.94872 18.282C1.58778 17.6641 1.72997 16.8766 2.28231 16.4172C2.28778 16.4117 2.29325 16.4062 2.29872 16.4008L4.38778 14.7602L4.38231 14.7547C4.36044 14.4812 4.3495 14.2352 4.3495 13.9945C4.3495 13.7484 4.36044 13.5023 4.38231 13.2398L2.30419 11.6102C2.29325 11.6047 2.28778 11.5992 2.28231 11.5883C1.74091 11.1289 1.60419 10.3469 1.95966 9.73438L4.30028 5.6875C4.30028 5.68203 4.30575 5.68203 4.30575 5.67656C4.67216 5.06406 5.42138 4.80156 6.08856 5.05313C6.09403 5.05313 6.0995 5.05859 6.10497 5.05859L8.56044 6.04844C8.97606 5.76406 9.40809 5.5125 9.85653 5.29375L10.2229 2.67422C10.2229 2.66328 10.2284 2.65234 10.2284 2.64688C10.3433 1.95234 10.9448 1.43828 11.6503 1.42188C11.6557 1.42188 11.6612 1.42188 11.6667 1.42188H16.3425C16.3479 1.42188 16.3534 1.42188 16.3589 1.42188C17.0589 1.43281 17.644 1.91953 17.7862 2.60312C17.7917 2.61953 17.7917 2.64141 17.7972 2.65781L18.1636 5.27188H18.169C18.6175 5.49062 19.055 5.74219 19.4651 6.03203L21.9206 5.04219C21.9261 5.04219 21.9315 5.03672 21.937 5.03672C22.6042 4.77969 23.3534 5.04219 23.7198 5.66016C23.7198 5.66563 23.7253 5.66562 23.7253 5.67109L26.0659 9.71797C26.4268 10.3359 26.2847 11.1234 25.7323 11.5828C25.7268 11.5883 25.7214 11.5938 25.7159 11.5992L23.6268 13.2398C23.6268 13.2453 23.6268 13.2508 23.6268 13.2508C23.6487 13.5297 23.6597 13.7758 23.6597 14V14.0055C23.6597 14.2516 23.6487 14.5031 23.6268 14.7492L25.7159 16.3844C25.7214 16.3898 25.7268 16.3953 25.7323 16.4008C26.2847 16.8602 26.4268 17.6422 26.0659 18.2656L23.7253 22.3125C23.7253 22.318 23.7198 22.318 23.7198 22.3234C23.3534 22.9359 22.6042 23.1984 21.937 22.9469C21.9315 22.9469 21.9261 22.9414 21.9206 22.9414L19.4651 21.9516C19.0495 22.2359 18.6175 22.4875 18.169 22.7063L17.8026 25.3258C17.8026 25.3367 17.7972 25.3477 17.7972 25.3531C17.6768 26.0477 17.0753 26.5617 16.3698 26.5781C16.3589 26.5781 16.3534 26.5781 16.3479 26.5781ZM11.9128 24.8281H16.1018L16.4354 22.4602C16.5175 21.8859 16.8784 21.3883 17.4034 21.1313C17.7753 20.9508 18.1308 20.743 18.4698 20.5133C18.9511 20.1797 19.569 20.1086 20.1214 20.3273L22.3417 21.2188L24.4307 17.6039L22.1558 15.8266C21.9097 15.6352 21.7839 15.3234 21.8276 15.0172C21.8768 14.6836 21.8987 14.3391 21.9042 14C21.9042 13.8195 21.8932 13.6227 21.8768 13.393C21.8222 12.8023 22.0737 12.2281 22.5386 11.8617L24.4253 10.3797L22.3362 6.76484L20.1159 7.65625C19.569 7.875 18.9511 7.80938 18.4643 7.47031C18.1307 7.23516 17.7753 7.02734 17.4089 6.85234C16.8839 6.60078 16.5175 6.10313 16.43 5.52344L16.1018 3.17188H11.9128L11.5792 5.53984C11.4972 6.11406 11.1362 6.61172 10.6112 6.86875C10.2393 7.04922 9.88387 7.25703 9.54481 7.48672C9.06356 7.82031 8.44559 7.89141 7.89325 7.67266L5.68388 6.78125L3.59481 10.3961L5.47059 11.8727C5.93544 12.2391 6.18153 12.8078 6.13231 13.3984C6.11044 13.6117 6.10497 13.8086 6.10497 14C6.10497 14.1859 6.11591 14.3828 6.13231 14.607C6.187 15.1977 5.94091 15.7719 5.47606 16.1383L3.58934 17.6203L5.67841 21.2352L7.89325 20.3438C8.44012 20.125 9.05809 20.1906 9.54481 20.5297C9.87841 20.7648 10.2339 20.9727 10.6003 21.1477C11.1253 21.3992 11.4917 21.8969 11.5792 22.4766L11.9128 24.8281ZM14.0128 18.375C13.8706 18.375 13.7229 18.3695 13.5807 18.3531C12.4159 18.2383 11.3714 17.675 10.6276 16.7727C9.88387 15.8703 9.53934 14.7328 9.65419 13.568C9.88934 11.1672 12.0386 9.40625 14.4393 9.64141C16.5065 9.84922 18.1526 11.5008 18.3604 13.5625C18.3878 13.8469 18.3878 14.1367 18.3604 14.4266C18.1362 16.6852 16.2331 18.375 14.0128 18.375ZM14.0018 11.375C13.3948 11.375 12.8151 11.5828 12.3393 11.9711C11.7979 12.4141 11.4589 13.043 11.3932 13.743C11.3222 14.443 11.53 15.1211 11.9784 15.668C12.4214 16.2094 13.0503 16.5484 13.7503 16.6141C15.1886 16.7562 16.4792 15.7008 16.6214 14.257C16.6378 14.0875 16.6378 13.9125 16.6214 13.743C16.4956 12.5016 15.5058 11.5117 14.2643 11.3859C14.1768 11.3805 14.0893 11.375 14.0018 11.375Z" fill="#21272A"/>
</g>
<defs>
<clipPath id="clip0_71_7149">
<rect width="28" height="28" fill="white"/>
</clipPath>
</defs>
</svg>
