<svg width="21" height="20" viewBox="0 0 21 20" fill="none" xmlns="http://www.w3.org/2000/svg">
<g clip-path="url(#clip0_237_5672)">
<path fill-rule="evenodd" clip-rule="evenodd" d="M3.16493 1.25L3.16675 1.25H15.6667L15.6686 1.25C16.3305 1.25192 16.9648 1.51574 17.4329 1.98383C17.901 2.45191 18.1648 3.08622 18.1667 3.74819L18.1667 3.75V4.375H16.9167V3.75107C16.9156 3.41963 16.7834 3.10209 16.549 2.86771C16.3147 2.63335 15.9972 2.50118 15.6658 2.5H3.16774C2.83633 2.50118 2.51882 2.63335 2.28446 2.86771C2.0501 3.10207 1.91793 3.41959 1.91675 3.751V13.749C1.91793 14.0804 2.0501 14.3979 2.28446 14.6323C2.51884 14.8667 2.83638 14.9988 3.16782 15H3.79175V16.25H3.16675L3.16493 16.25C2.50297 16.2481 1.86866 15.9843 1.40057 15.5162C0.932491 15.0481 0.668673 14.4138 0.666751 13.7518L0.666748 13.75V3.75L0.666751 3.74819C0.668673 3.08622 0.932491 2.45191 1.40057 1.98383C1.86866 1.51574 2.50296 1.25192 3.16493 1.25Z" fill="#ffffff"/>
<path fill-rule="evenodd" clip-rule="evenodd" d="M6.21323 5.625C5.56624 5.625 5.04175 6.14949 5.04175 6.79648V16.3285C5.04175 16.9755 5.56624 17.5 6.21323 17.5H18.2453C18.8923 17.5 19.4167 16.9755 19.4167 16.3285V6.79648C19.4167 6.14949 18.8923 5.625 18.2453 5.625H6.21323ZM3.79175 6.79648C3.79175 5.45914 4.87588 4.375 6.21323 4.375H18.2453C19.5826 4.375 20.6667 5.45914 20.6667 6.79648V16.3285C20.6667 17.6659 19.5826 18.75 18.2453 18.75H6.21323C4.87588 18.75 3.79175 17.6659 3.79175 16.3285V6.79648Z" fill="#ffffff"/>
<path fill-rule="evenodd" clip-rule="evenodd" d="M15.2339 8.01123C14.9111 8.01123 14.657 8.26991 14.657 8.57959C14.657 8.88927 14.9111 9.14795 15.2339 9.14795C15.5568 9.14795 15.8109 8.88927 15.8109 8.57959C15.8109 8.26991 15.5568 8.01123 15.2339 8.01123ZM13.407 8.57959C13.407 7.57112 14.2292 6.76123 15.2339 6.76123C16.2387 6.76123 17.0609 7.57112 17.0609 8.57959C17.0609 9.58806 16.2387 10.3979 15.2339 10.3979C14.2292 10.3979 13.407 9.58806 13.407 8.57959Z" fill="#ffffff"/>
<path fill-rule="evenodd" clip-rule="evenodd" d="M8.56698 10.6469C8.91534 10.3401 9.36711 10.1769 9.8311 10.1902C10.2951 10.2035 10.7368 10.3924 11.067 10.7186L14.472 14.0939C14.7171 14.3369 14.7189 14.7327 14.4759 14.9778C14.2329 15.2229 13.8371 15.2247 13.592 14.9817L10.1884 11.6078C10.1884 11.6077 10.1883 11.6076 10.1882 11.6076C10.0832 11.5039 9.94276 11.4439 9.79526 11.4397C9.64771 11.4355 9.50404 11.4873 9.39323 11.5849C9.39319 11.5849 9.39314 11.5849 9.3931 11.585L4.83025 15.6108C4.57142 15.8391 4.17646 15.8144 3.94809 15.5556C3.71972 15.2968 3.74442 14.9018 4.00326 14.6734L8.56698 10.6469Z" fill="#ffffff"/>
<path fill-rule="evenodd" clip-rule="evenodd" d="M16.8817 13.9352C16.7699 13.8435 16.6281 13.7963 16.4837 13.8028C16.3392 13.8094 16.2023 13.869 16.0992 13.9704C16.099 13.9706 16.0988 13.9708 16.0986 13.971L11.4677 18.5684C11.2227 18.8116 10.827 18.8101 10.5838 18.5652C10.3406 18.3202 10.342 17.9245 10.587 17.6813L15.2194 13.0825L15.2209 13.081C15.5441 12.7623 15.9739 12.5746 16.4273 12.5541C16.8808 12.5337 17.3258 12.6819 17.6763 12.9703L17.6777 12.9714L20.4402 15.257C20.7062 15.477 20.7434 15.871 20.5233 16.1369C20.3033 16.4029 19.9093 16.4401 19.6434 16.2201L16.8823 13.9357C16.8821 13.9355 16.8819 13.9353 16.8817 13.9352Z" fill="#ffffff"/>
</g>
<defs>
<clipPath id="clip0_237_5672">
<rect width="20" height="20" fill="white" transform="translate(0.666748)"/>
</clipPath>
</defs>
</svg>
